{"title":"The Antwerp Dolls 2015 Movies HDRip XviD AAC New +Sample ☻rDX☻","uid":14735149,"size":741407205,"categoryP":"video","categoryS":"movies","magnet":"?xt=urn:btih:15b6f2a8c79ee583fbc65eeb3ac65cff572f05a9&amp;dn=The+Antwerp+Dolls+2015+Movies+HDRip+XviD+AAC+New+%2BSample+%E2%98%BBrDX%E2%98%BB&amp;tr=udp%3A%2F%2Ftracker.leechers-paradise.org%3A6969&amp;tr=udp%3A%2F%2Fzer0day.ch%3A1337&amp;tr=udp%3A%2F%2Fopen.demonii.com%3A1337&amp;tr=udp%3A%2F%2Ftracker.coppersurfer.tk%3A6969&amp;tr=udp%3A%2F%2Fexodus.desync.com%3A6969","seeders":0,"leechers":1,"uploader":"basicssom","files":2,"time":1464628222,"description":"----------------------------------------------------------------\r\nThe Antwerp Dolls 2015 English Movies HDRip XviD AAC New Source with Sample ☻rDX☻\r\n\r\nSCREEN SHOTS &amp; POSTER:\r\n  \nhttp://mobileshosting.com/2016/5/ofline/index.htm  \nhttp://mobileshosting.com/2016/5/ofline/1.html  \nhttp://mobileshosting.com/2016/5/ofline/2.html  \nhttp://mobileshosting.com/2016/5/ofline/3.html  \nhttp://mobileshosting.com/2016/5/ofline/4.html  \nhttp://mobileshosting.com/2016/5/ofline/5.html  \nhttp://mobileshosting.com/2016/5/ofline/6.html  \nhttp://mobileshosting.com/2016/5/ofline/7.html  \nhttp://mobileshosting.com/2016/5/ofline/8.html  \nhttp://mobileshosting.com/2016/5/ofline/9.html  \nhttp://mobileshosting.com/2016/5/ofline/10.html\r\n\r\nFormat                                   : Matroska\r\nFormat version                           : Version 4 / Version 2\r\nFile size                                : 694 MiB\r\nDuration                                 : 1h 29mn\r\nOverall bit rate                         : 1 086 Kbps\r\nMovie name                               : The Antwerp Dolls 2015 English Movies HDRip XviD AAC New Source ☻rDX☻\r\n\r\nVideo\r\nID                                       : 1\r\nFormat                                   : MPEG-4 Visual\r\nFormat profile                           : Advanced   \r\nFormat settings, BVOP                    : Yes\r\nFormat settings, QPel                    : No\r\nFormat settings, GMC                     : No warppoints\r\nFormat settings, Matrix                  : Default (H.263)\r\nCodec ID                                 : V_MS/VFW/FOURCC / XVID\r\nCodec ID/Hint                            : XviD\r\nDuration                                 : 1h 29mn\r\nBit rate                                 : 936 Kbps\r\nWidth                                    : 640 pixels\r\nHeight                                   : 272 pixels\r\nDisplay aspect ratio                     : 2.35:1\r\nFrame rate mode                          : Constant\r\nFrame rate                               : 25.000 fps\r\nColor space                              : YUV\r\nChroma subsampling                       : 4:2:0\r\nBit depth                                : 8 bits\r\nScan type                                : Progressive\r\nCompression mode                         : Lossy\r\nBits/(Pixel*Frame)                       : 0.215\r\nStream size                              : 598 MiB (86%)\r\nTitle                                    : ☻rDX☻\r\nWriting library                          : XviD 65\r\nDefault                                  : Yes\r\nForced                                   : No\r\n\r\nAudio\r\nID                                       : 2\r\nFormat                                   : MPEG Audio\r\nFormat version                           : Version 1\r\nFormat profile                           : Layer 3\r\nMode                                     : Joint stereo\r\nMode extension                           : MS Stereo\r\nCodec ID                                 : A_MPEG/L3\r\nCodec ID/Hint                            : MP3\r\nDuration                                 : 1h 29mn\r\nBit rate mode                            : Constant\r\nBit rate                                 : 128 Kbps\r\nChannel(s)                               : 2 channels\r\nSampling rate                            : 48.0 KHz\r\nCompression mode                         : Lossy\r\nStream size                              : 81.8 MiB (12%)\r\nTitle                                    : ☻rDX☻\r\nWriting library                          : LAME3.99r\r\nEncoding settings                        : -m j -V 4 -q 3 -lowpass 17 -b 128\r\nDefault                                  : Yes\r\nForced                                   : No\r\n\r\nIMDB \nhttp://www.imdb.com/title/tt2084957/","torrent":{"xt":"urn:btih:15b6f2a8c79ee583fbc65eeb3ac65cff572f05a9","amp;dn":"The+Antwerp+Dolls+2015+Movies+HDRip+XviD+AAC+New+%2BSample+%E2%98%BBrDX%E2%98%BB","amp;tr":["udp%3A%2F%2Ftracker.leechers-paradise.org%3A6969","udp%3A%2F%2Fzer0day.ch%3A1337","udp%3A%2F%2Fopen.demonii.com%3A1337","udp%3A%2F%2Ftracker.coppersurfer.tk%3A6969","udp%3A%2F%2Fexodus.desync.com%3A6969"],"infoHash":"15b6f2a8c79ee583fbc65eeb3ac65cff572f05a9","infoHashBuffer":{"type":"Buffer","data":[21,182,242,168,199,158,229,131,251,198,94,235,58,198,92,255,87,47,5,169]},"announce":[],"urlList":[]}}